<svg width="1920" height="1080" xmlns="http://www.w3.org/2000/svg" style="background-color:#3c3836">
  <path fill="#3c3836" d="M0 0h1920v1080H0z"/>
  <path d="m0 300 40 14.6c40 14.8 120 44 200 58.4 80 14.4 160 13.6 240-14s160-82.4 240-106c80-23.6 160-16.4 240-7 80 9.4 160 20.6 240 56.4 80 35.6 160 95.6 240 82.6s160-99 240-107.4c80-8.2 160 61 200 95.8l40 34.6v674H0Z" fill="#fb4934"/>
  <path d="m0 494 40 2.4c40 2.2 120 7 200-1.4s160-29.6 240-32c80-2.4 160 14.4 240-7.4 80-21.6 160-81.6 240-79 80 2.8 160 68 240 72.4 80 4.4 160-52.4 240-46 80 6.4 160 75.6 240 108 80 32.4 160 27.6 200 25.4l40-2.4v548H0Z" fill="#b16286"/>
  <path d="m0 686 40-32c40-32 120-96 200-124.4 80-28.2 160-21 240 7.4s160 77.6 240 85c80 7.4 160-27.4 240-51.6 80-24.4 160-38.4 240-53 80-14.8 160-30 240 7.2 80 37.4 160 127.4 240 157 80 29.8 160-1 200-16.2l40-15.4v432H0Z" fill="#458588"/>
  <path d="m0 656 40 13.4c40 13.2 120 40 200 34.2C320 698 400 660 480 666s160 56 240 85 160 37 240 22 160-53 240-87 160-64 240-67.6c80-3.8 160 19 240 37.6s160 33.4 200 40.6l40 7.4v378H0Z" fill="#689d6a"/>
  <path d="m0 852 40 13c40 13 120 39 200 45.6 80 6.8 160-6 240-40S640 781.4 720 751c80-30.4 160-35.6 240-37.4 80-1.6 160 .4 240 12.8 80 12.2 160 35 240 41.6 80 6.6 160-2.6 240-12s160-18.6 200-23.4l40-4.6v354H0Z" fill="#d79921"/>
  <path d="m0 1024 40-27.6c40-27.8 120-83 200-100.4 80-17.4 160 3.4 240 18.4 80 15 160 24.2 240 41.6 80 17.4 160 42.6 240 49.4 80 6.6 160-5.4 240-15 80-9.8 160-17 240-33s160-40.8 240-59.8 160-32.2 200-39l40-6.6v230H0Z" fill="#fe8019"/>
  <path d="m800 660 115-115 40 40-75 75m240 0L880 420h-80l240 240" fill="#3c3836"/>
</svg>
