<svg width="1920" height="1080" xmlns="http://www.w3.org/2000/svg">
  <path fill="#282c34" d="M0 0h1920v1080H0z"/>
  <path fill="#61afef" d="M60.998-308.708 909.526 539.82 626.683 822.663-221.845-25.865z"/>
  <path fill="#c678dd" d="m960.438 590.732 848.528 848.528-282.843 282.843-848.528-848.528z"/>
  <path fill="#98c379" d="m888.313-146.073 848.528 848.528-282.843 282.843L605.47 136.77z"/>
  <path fill="#e5c07b" d="m-4.056-1038.442 848.528 848.528L561.63 92.93-286.9-755.6z"/>
  <path fill="#56b6c2" d="m1625.118-73.948 848.528 848.528-282.842 282.843-848.529-848.529z"/>
  <path fill="#c678dd" d="m725.678-973.388 848.528 848.528-282.842 282.843-848.528-848.528z"/>
  <path fill="#e56c75" d="m1780.682 746.296 848.528 848.528-282.843 282.842-848.528-848.528z"/>
  <path fill="#e5c07b" d="m223.632 518.607 848.529 848.528-282.843 282.843L-59.21 801.45z"/>
  <path fill="#e56c75" d="m-668.736-373.762 848.528 848.529-282.843 282.842-848.528-848.528z"/>
  <path fill="#61afef" d="M-603.682 355.973 244.846 1204.5l-282.843 282.843-848.528-848.529z"/>
  <path fill="#e56c75" d="m1552.993-810.754 848.528 848.529-282.842 282.842L1270.15-527.91z"/>
  <path d="m800 660 115-115 40 40-75 75m240 0L880 420h-80l240 240" fill="#56b6c2"/>
</svg>
